<?xml version="1.0" standalone="no"?>
<!DOCTYPE svg PUBLIC "-//W3C//DTD SVG 20010904//EN"
 "http://www.w3.org/TR/2001/REC-SVG-20010904/DTD/svg10.dtd">
<svg version="1.0" xmlns="http://www.w3.org/2000/svg"
 width="157.000000pt" height="155.000000pt" viewBox="0 0 157.000000 155.000000"
 preserveAspectRatio="xMidYMid meet">

<g transform="translate(0.000000,155.000000) scale(0.100000,-0.100000)"
fill="#e35865" stroke="none">
<path d="M545 1520 c-235 -50 -415 -208 -489 -430 -24 -71 -29 -102 -30 -190
-1 -126 13 -188 67 -300 79 -162 238 -288 422 -335 135 -34 326 -9 450 59 l62
34 164 -164 c185 -186 209 -200 276 -168 25 13 44 32 57 57 32 67 18 91 -167
275 l-164 163 42 84 c56 110 69 177 63 317 -4 87 -11 128 -30 180 -95 256
-314 415 -583 424 -55 2 -118 -1 -140 -6z m270 -251 c79 -29 175 -121 217
-207 31 -62 33 -73 33 -172 0 -97 -2 -110 -32 -172 -65 -138 -192 -225 -341
-235 -377 -26 -584 426 -317 693 116 117 283 152 440 93z"/>
</g>
</svg>
